<svg width="750" height="145.38" viewBox="0 0 325 63" fill="none" xmlns="http://www.w3.org/2000/svg">
<g clip-path="url(#clip0_1761_2205)">
<path d="M15.373 0H21L5.801 62.4H0L15.373 0Z" fill="#1B77C9"/>
<path d="M32.4433 0H38.0703L22.8723 62.4H17.0703L32.4433 0Z" fill="#1B77C9"/>
<path d="M71.5866 7.71C75.1736 8.867 78.2776 11.177 80.4166 14.28C82.1966 16.795 83.4546 19.641 84.1166 22.65C84.7546 25.466 85.0896 28.343 85.1166 31.23C85.1166 38.123 83.7336 43.96 80.9666 48.74C77.2066 55.18 71.4066 58.4 63.5666 58.4H41.2266V6.58H63.5666C66.2816 6.558 68.9836 6.939 71.5866 7.71ZM51.7666 15.58V49.4H61.7666C66.8736 49.4 70.4396 46.883 72.4666 41.85C73.6246 38.698 74.1776 35.357 74.0966 32C74.0966 26.72 73.2666 22.67 71.6066 19.85C69.9466 17.03 66.6666 15.607 61.7666 15.58H51.7666Z" fill="white"/>
<path d="M120.77 52.7196C117.544 56.7196 112.634 58.7196 106.04 58.7196C99.4472 58.7196 94.5372 56.7196 91.3105 52.7196C88.0436 48.6355 86.3257 43.5279 86.4605 38.2996C86.3486 33.0901 88.0646 28.0059 91.3105 23.9296C94.5372 19.8763 99.4472 17.8496 106.04 17.8496C112.634 17.8496 117.544 19.8763 120.77 23.9296C124.013 28.0079 125.728 33.0907 125.621 38.2996C125.751 43.5272 124.034 48.6334 120.77 52.7196V52.7196ZM112.77 47.1796C114.337 45.0996 115.124 42.1396 115.13 38.2996C115.137 34.4596 114.35 31.5029 112.77 29.4296C111.934 28.4571 110.897 27.6767 109.732 27.1417C108.566 26.6067 107.298 26.3298 106.015 26.3298C104.733 26.3298 103.465 26.6067 102.299 27.1417C101.134 27.6767 100.097 28.4571 99.2605 29.4296C97.6672 31.4963 96.8738 34.4529 96.8805 38.2996C96.8872 42.1463 97.6805 45.1063 99.2605 47.1796C100.093 48.1581 101.129 48.944 102.295 49.4829C103.461 50.0218 104.731 50.301 106.015 50.301C107.3 50.301 108.57 50.0218 109.736 49.4829C110.902 48.944 111.938 48.1581 112.77 47.1796V47.1796Z" fill="white"/>
<path d="M152.119 32.8297C151.941 31.4574 151.444 30.1458 150.669 28.9997C150.052 28.2113 149.25 27.5871 148.334 27.1824C147.418 26.7778 146.417 26.6051 145.419 26.6797C142.039 26.6797 139.719 28.3597 138.479 31.6797C137.74 33.9644 137.401 36.3597 137.479 38.7597C137.402 41.0582 137.741 43.3516 138.479 45.5297C138.906 46.9696 139.804 48.224 141.031 49.091C142.257 49.9581 143.739 50.3873 145.239 50.3097C147.592 50.3097 149.259 49.6764 150.239 48.4097C151.287 46.9701 151.91 45.2657 152.039 43.4897H162.269C161.997 46.6261 160.85 49.6232 158.959 52.1397C155.812 56.5197 151.145 58.713 144.959 58.7197C138.772 58.7264 134.232 56.8964 131.339 53.2297C128.425 49.5697 126.969 44.8297 126.969 39.0097C126.969 32.4364 128.575 27.3197 131.789 23.6597C135.002 19.9997 139.439 18.173 145.099 18.1797C149.912 18.1797 153.845 19.2564 156.899 21.4097C159.952 23.563 161.765 27.373 162.339 32.8397L152.119 32.8297Z" fill="white"/>
<path d="M165.523 6.75977H175.363V34.7598L188.003 20.3098H200.463L186.763 34.5398L200.993 58.3998H188.763L179.513 41.9998L175.363 46.3198V58.3198H165.523V6.75977Z" fill="white"/>
<path d="M209.845 45.17C209.899 46.5492 210.382 47.8772 211.225 48.97C212.475 50.3 214.775 50.97 218.145 50.97C219.765 51.0426 221.38 50.7415 222.865 50.09C223.353 49.8702 223.773 49.5216 224.078 49.0816C224.384 48.6416 224.563 48.1267 224.598 47.5922C224.633 47.0577 224.522 46.5238 224.277 46.0478C224.031 45.5717 223.661 45.1715 223.205 44.89C222.245 44.2967 218.765 43.29 212.765 41.87C208.418 40.79 205.352 39.4567 203.565 37.87C201.778 36.2833 200.888 33.9867 200.895 30.98C200.886 29.2483 201.255 27.5355 201.975 25.9606C202.695 24.3857 203.75 22.9864 205.065 21.86C207.825 19.2867 211.725 18 216.765 18C221.558 18 225.465 18.9567 228.485 20.87C231.505 22.7833 233.238 26.0833 233.685 30.77H223.685C223.607 29.6682 223.226 28.6093 222.585 27.71C221.485 26.3767 219.605 25.71 216.945 25.71C215.323 25.5683 213.696 25.9166 212.275 26.71C211.864 26.9625 211.522 27.313 211.279 27.7301C211.037 28.1471 210.901 28.6178 210.885 29.1C210.855 29.6153 210.981 30.1276 211.244 30.5712C211.508 31.0149 211.898 31.3697 212.365 31.59C213.352 32.13 216.838 33.0567 222.825 34.37C226.825 35.31 229.825 36.73 231.825 38.63C232.784 39.5567 233.541 40.6724 234.047 41.9066C234.553 43.1407 234.798 44.4665 234.765 45.8C234.812 47.5715 234.453 49.3303 233.717 50.9421C232.98 52.5539 231.885 53.9761 230.515 55.1C227.682 57.5 223.308 58.7033 217.395 58.71C211.395 58.71 206.938 57.4367 204.025 54.89C202.631 53.6904 201.522 52.196 200.776 50.515C200.031 48.8339 199.668 47.0083 199.715 45.17H209.845Z" fill="white"/>
<path d="M245.364 19.9298H251.764L243.854 57.3998H237.414L245.364 19.9298ZM248.364 5.75977H254.804L253.254 12.9298H246.824L248.364 5.75977Z" fill="white"/>
<path d="M279.205 20.9096C280.457 21.9276 281.497 23.1806 282.265 24.5996L286.265 5.59961H292.345L281.345 57.4196H275.655L276.765 52.1696C275.051 54.2756 272.897 55.9816 270.455 57.1696C268.177 58.2096 265.699 58.7386 263.195 58.7196C259.221 58.8446 255.486 56.8246 253.415 53.4296C251.095 49.8966 250.568 45.2026 251.835 39.3496C252.898 34.0296 255.391 29.0996 259.045 25.0896C262.374 21.2276 267.237 19.0326 272.335 19.0896C274.76 18.9536 277.165 19.5906 279.205 20.9096ZM266.375 53.2196C269.456 53.1476 272.363 51.7736 274.375 49.4396C276.795 46.9196 278.508 43.3066 279.515 38.5996C280.522 33.8926 280.302 30.3596 278.855 27.9996C277.487 25.7596 275.006 24.4446 272.385 24.5696C269.166 24.5816 266.09 25.9026 263.865 28.2296C261.365 30.6696 259.612 34.2566 258.605 38.9896C257.738 42.9896 257.872 46.3626 259.005 49.1096C260.138 51.8566 262.595 53.2266 266.375 53.2196Z" fill="white"/>
<path d="M322.914 25.6596C323.811 27.7516 324.195 30.0286 324.034 32.2996C323.915 35.0986 323.517 37.8796 322.844 40.5996H295.244C294.544 44.4196 294.794 47.4826 295.994 49.7896C297.194 52.0966 299.567 53.2526 303.114 53.2596C306.286 53.3146 309.358 52.1476 311.694 49.9996C313.08 48.7616 314.215 47.2676 315.034 45.5996H321.254C320.632 47.2676 319.751 48.8266 318.644 50.2196C317.498 51.7776 316.153 53.1796 314.644 54.3896C312.328 56.2616 309.605 57.5636 306.694 58.1896C304.951 58.5746 303.169 58.7626 301.384 58.7496C296.717 58.7496 293.107 57.0426 290.554 53.6296C288.001 50.2166 287.404 45.4396 288.764 39.2996C289.807 33.6676 292.608 28.5106 296.764 24.5696C300.527 20.9116 305.576 18.8786 310.824 18.9096C313.405 18.8906 315.947 19.5386 318.204 20.7896C320.276 21.8386 321.935 23.5536 322.914 25.6596ZM317.394 35.5696C317.764 33.3786 317.63 31.1316 317.004 28.9996C315.924 25.9466 313.357 24.4226 309.304 24.4296C306.34 24.4456 303.488 25.5656 301.304 27.5696C298.895 29.6666 297.199 32.4636 296.454 35.5696H317.394Z" fill="white"/>
</g>
<defs>
<clipPath id="clip0_1761_2205">
<rect width="324.073" height="62.4" fill="white"/>
</clipPath>
</defs>
</svg>
