<?xml version="1.0" standalone="no"?>
<!DOCTYPE svg PUBLIC "-//W3C//DTD SVG 20010904//EN"
 "http://www.w3.org/TR/2001/REC-SVG-20010904/DTD/svg10.dtd">
<svg version="1.0" xmlns="http://www.w3.org/2000/svg"
 width="260.000000pt" height="260.000000pt" viewBox="0 0 260.000000 260.000000"
 preserveAspectRatio="xMidYMid meet">
<metadata>
Created by potrace 1.14, written by Peter Selinger 2001-2017
</metadata>
<g transform="translate(0.000000,260.000000) scale(0.100000,-0.100000)"
fill="#000000" stroke="none">
<path d="M1167 2553 c-3 -5 -30 -89 -61 -188 -31 -99 -63 -196 -70 -215 -8
-19 -14 -39 -15 -45 -3 -21 -23 -90 -29 -100 -4 -5 -7 -15 -8 -21 -1 -6 -33
-109 -72 -230 -39 -120 -96 -300 -127 -399 -31 -99 -83 -264 -116 -367 -33
-103 -60 -190 -60 -193 1 -3 -6 -22 -13 -42 -8 -21 -38 -112 -66 -203 -28 -91
-54 -172 -57 -180 -3 -8 -7 -19 -8 -25 -2 -5 -21 -66 -42 -135 -22 -69 -43
-134 -47 -145 -6 -19 -2 -20 102 -18 59 1 118 2 132 2 23 1 28 10 64 124 21
67 37 124 35 127 -1 3 3 15 10 28 7 13 14 31 16 40 2 9 13 43 24 75 11 31 18
57 15 57 -2 0 2 13 11 30 8 16 15 32 15 35 -1 3 10 40 23 83 14 42 55 171 92
287 36 116 71 226 78 245 6 19 12 40 13 45 1 6 11 35 22 65 10 30 20 58 21 62
1 4 3 13 5 20 3 7 14 42 25 78 52 169 143 457 148 470 3 8 7 20 9 25 6 23 73
232 82 255 5 14 9 27 9 30 0 5 89 287 100 316 4 11 -19 14 -125 14 -72 0 -133
-3 -135 -7z"/>
<path d="M1901 2363 c-34 -109 -77 -245 -96 -303 -18 -58 -59 -186 -90 -285
-31 -99 -62 -193 -68 -210 -6 -16 -13 -36 -14 -42 -6 -28 -11 -44 -67 -218
-32 -99 -82 -259 -113 -355 -30 -96 -64 -199 -74 -229 -11 -29 -17 -56 -14
-59 2 -3 1 -10 -4 -16 -8 -10 -39 -99 -45 -129 -2 -7 -6 -19 -9 -27 -6 -16
-67 -208 -72 -225 -1 -5 -5 -17 -8 -25 -18 -46 -57 -184 -53 -188 7 -7 246 -5
253 2 5 5 135 404 147 451 2 6 6 17 9 25 8 22 48 152 52 170 2 8 19 62 38 120
55 167 108 334 112 350 2 8 22 71 45 140 23 69 43 135 46 147 2 12 10 35 16
50 7 16 12 33 13 38 1 10 77 250 115 365 33 101 72 225 75 242 2 9 9 26 15 37
6 12 8 21 5 21 -3 0 -1 9 5 21 6 11 13 28 15 37 5 24 61 201 74 235 22 57 22
57 -117 57 l-128 0 -63 -197z"/>
</g>
</svg>
